# xmcd
#
# Track frame offsets: 
#        150
#        25377
#        49550
#        65102
#        87310
#        106225
#        142900
#        161630
#        183245
#        195862
#
# Disc length: 3084 seconds
#
# Revision: 6
# Processed by: cddbd v1.5.2PL0 Copyright (c) Steve Scherf et al.
# Submitted via: ExactAudioCopy v1.0b3
#
DISCID=7d0c0a0a
DTITLE=Various Artist - The Blues White Album
DYEAR=2002
DGENRE=Blues
TTITLE0=Jimmy Thackery and The Drivers - Why Don't We Do It In The Road 
TTITLE0=?
TTITLE1=Lucky Peterson - Yer Blues
TTITLE2=Andres Osborn - Happiness Is A Warm Gun
TTITLE3=Kenny Neal, Lucky Peterson, Tab Benoit - Revolution
TTITLE4=Maria Muldaur - Ob-La-Di, Ob-La-Da
TTITLE5=Joe Louis Walker - While My Guitar Gently Weeps
TTITLE6=T-Bone Walk - Don't Pass Me By
TTITLE7=Chris Duarte - I'm So Tired
TTITLE8=Collin Linden - Blackbird
TTITLE9=Charlie Musselwhite, Colin Linden - Dear Prudence
EXTD=
EXTT0=
EXTT1=
EXTT2=
EXTT3=
EXTT4=
EXTT5=
EXTT6=
EXTT7=
EXTT8=
EXTT9=
PLAYORDER=
